#!OML:ASF G:\JayActor3\Patient Classification 1\Patient 1\Session 5\male.ASF
:FULLY-SPECIFIED
:DEGREES
894
root 3.75925 16.9612 -6.81889 377.138 -87.5094 -21.1901
lowerback 1.39878 -0.753266 0.386154
upperback 1.20539 -1.00966 0.233486
thorax 0.44717 -0.50683 0.0323913
lowerneck -4.60134 -2.04548 1.45761
upperneck 1.09675 -2.88136 2.20592
head 1.11533 -1.40394 0.370012
rclavicle 1.60348e-015 3.23025e-016
rhumerus -22.4328 -14.8067 -37.9678
rradius 65.0791
rwrist -7.17753
rhand -21.9312 -12.4701
rfingers 7.12502
rthumb 4.47523 -42.4028
lclavicle 1.60348e-015 3.23025e-016
lhumerus -18.1188 13.9414 41.1067
lradius 71.5427
lwrist 11.2168
lhand -22.7711 20.7198
lfingers 7.12502
lthumb 3.66414 50.668
rfemur -1.44121 -0.916983 17.8765
rtibia 29.7624
rfoot -29.9025 -19.7786
rtoes 11.3403
lfemur 6.77489 5.09765 -14.1031
ltibia 7.71564
lfoot -10.3472 15.073
ltoes 3.80413
895
root 3.75812 16.9613 -6.81844 377.738 -87.5468 -21.7842
lowerback 1.40958 -0.7646 0.399543
upperback 1.22078 -1.02476 0.215649
thorax 0.456282 -0.51426 0.00682439
lowerneck -4.54243 -2.02284 1.46249
upperneck 1.06501 -2.85097 2.25527
head 1.09583 -1.38898 0.385891
rclavicle -6.53388e-015 2.31087e-015
rhumerus -23.3715 -14.5716 -38.9484
rradius 66.1597
rwrist -7.28593
rhand -22.6645 -12.3987
rfingers 7.12502
rthumb 3.76713 -42.3452
lclavicle -6.53388e-015 2.31087e-015
lhumerus -19.1679 13.9645 41.9152
lradius 72.8002
lwrist 11.4392
lhand -22.8834 20.2535
lfingers 7.12502
lthumb 3.55567 50.2036
rfemur -1.43906 -0.896179 17.8862
rtibia 29.7414
rfoot -29.8837 -19.7691
rtoes 11.3365
lfemur 6.79403 5.14125 -14.088
ltibia 7.69546
lfoot -10.3492 15.0704
ltoes 3.80533
896
root 3.75696 16.9614 -6.81801 378.377 -87.5874 -22.4197
lowerback 1.41881 -0.776113 0.412499
upperback 1.23718 -1.04012 0.197214
thorax 0.467294 -0.521818 -0.0191417
lowerneck -4.48268 -1.99963 1.46605
upperneck 1.03628 -2.81975 2.30514
head 1.07717 -1.3736 0.402127
rclavicle -1.21794e-015 3.8763e-015
rhumerus -24.2861 -14.3309 -39.9707
rradius 67.159
rwrist -7.3515
rhand -23.3993 -12.3088
rfingers 7.12502
rthumb 3.05746 -42.2667
lclavicle -1.21794e-015 3.8763e-015
lhumerus -20.2067 13.9709 42.743
lradius 73.9767
lwrist 11.6564
lhand -22.9807 19.793
lfingers 7.12502
lthumb 3.46176 49.7446
rfemur -1.43586 -0.874979 17.8953
rtibia 29.7211
rfoot -29.863 -19.7579
rtoes 11.33
lfemur 6.81674 5.18818 -14.0726
ltibia 7.67416
lfoot -10.3514 15.0677
ltoes 3.80715
897
root 3.75579 16.9615 -6.81763 379.065 -87.6311 -23.1047
lowerback 1.42622 -0.787587 0.4248
upperback 1.25438 -1.05546 0.17837
thorax 0.480132 -0.529359 -0.0451942
lowerneck -4.42277 -1.97594 1.46764
upperneck 1.01121 -2.78785 2.35617
head 1.05968 -1.35783 0.419018
rclavicle -1.31043e-014 -2.23633e-015
rhumerus -25.1741 -14.087 -41.0323
rradius 68.0715
rwrist -7.37282
rhand -24.1297 -12.1992
rfingers 7.12502
rthumb 2.35207 -42.166
lclavicle -1.31043e-014 -2.23633e-015
lhumerus -21.2316 13.9625 43.59
lradius 75.0669
lwrist 11.8684
lhand -23.0566 19.3367
lfingers 7.12502
lthumb 3.38842 49.2895
rfemur -1.43229 -0.852388 17.904
rtibia 29.7017
rfoot -29.8409 -19.7456
rtoes 11.3225
lfemur 6.84251 5.23853 -14.0569
ltibia 7.65158
lfoot -10.3543 15.0645
ltoes 3.81224
898
root 3.75461 16.9616 -6.81728 379.808 -87.6772 -23.847
lowerback 1.43212 -0.798892 0.437019
upperback 1.27243 -1.07058 0.159118
thorax 0.49465 -0.536789 -0.0716526
lowerneck -4.36292 -1.95226 1.46773
upperneck 0.989575 -2.75593 2.40752
head 1.04333 -1.34202 0.436208
rclavicle 1.45051e-015 -2.38542e-015
rhumerus -26.0348 -13.8389 -42.1302
rradius 68.8934
rwrist -7.35297
rhand -24.8575 -12.0664
rfingers 7.12502
rthumb 1.64921 -42.0398
lclavicle 1.45051e-015 -2.38542e-015
lhumerus -22.2394 13.9408 44.4562
lradius 76.0669
lwrist 12.0764
lhand -23.1143 18.8879
lfingers 7.12502
lthumb 3.33271 48.8416
rfemur -1.42793 -0.829327 17.9127
rtibia 29.6831
rfoot -29.8172 -19.7318
rtoes 11.3137
lfemur 6.87125 5.29182 -14.0406
ltibia 7.62808
lfoot -10.3572 15.0613
ltoes 3.8166
899
root 3.75344 16.9616 -6.81696 380.605 -87.7257 -24.6448
lowerback 1.43688 -0.810004 0.44871
upperback 1.29113 -1.08547 0.13958
thorax 0.510474 -0.544096 -0.0981376
lowerneck -4.30314 -1.92873 1.46605
upperneck 0.971593 -2.72416 2.45907
head 1.02818 -1.32625 0.453707
rclavicle -9.13633e-015 1.68967e-015
rhumerus -26.8656 -13.5901 -43.2613
rradius 69.62
rwrist -7.2876
rhand -25.5746 -11.9233
rfingers 7.12502
rthumb 0.956656 -41.9009
lclavicle -9.13633e-015 1.68967e-015
lhumerus -23.2281 13.9078 45.3413
lradius 76.9744
lwrist 12.2797
lhand -23.1493 18.4472
lfingers 7.12502
lthumb 3.29889 48.4014
rfemur -1.4226 -0.805677 17.9212
rtibia 29.6651
rfoot -29.7923 -19.717
rtoes 11.3036
lfemur 6.90273 5.34774 -14.0239
ltibia 7.60428
lfoot -10.3605 15.058
ltoes 3.8219
900
root 3.75227 16.9615 -6.81669 381.487 -87.7757 -25.5288
lowerback 1.44036 -0.820765 0.460917
upperback 1.31078 -1.0999 0.12016
thorax 0.527959 -0.55117 -0.124827
lowerneck -4.24424 -1.90547 1.46286
upperneck 0.956998 -2.69274 2.51036
head 1.01426 -1.31063 0.471322
rclavicle 1.64929e-014 1.88845e-015
rhumerus -27.6636 -13.3431 -44.4225
rradius 70.2471
rwrist -7.18219
rhand -26.2772 -11.7665
rfingers 7.12502
rthumb 0.278033 -41.746
lclavicle 1.64929e-014 1.88845e-015
lhumerus -24.1949 13.8652 46.2446
lradius 77.7868
lwrist 12.4789
lhand -23.1634 18.0182
lfingers 7.12502
lthumb 3.28532 47.9726
rfemur -1.4163 -0.781509 17.9306
rtibia 29.6477
rfoot -29.7657 -19.7013
rtoes 11.2911
lfemur 6.93649 5.4061 -14.0057
ltibia 7.5809
lfoot -10.3648 15.0543
ltoes 3.82865
901
root 3.75113 16.9615 -6.81646 382.456 -87.8274 -26.5008
lowerback 1.44274 -0.830972 0.473055
upperback 1.33088 -1.11361 0.10095
thorax 0.546523 -0.557875 -0.151296
lowerneck -4.18483 -1.88267 1.45807
upperneck 0.94482 -2.66186 2.56138
head 1.00103 -1.29527 0.489079
rclavicle 7.80463e-015 -5.46658e-016
rhumerus -28.4281 -13.0979 -45.6097
rradius 70.7722
rwrist -7.03718
rhand -26.9628 -11.5937
rfingers 7.12502
rthumb -0.384204 -41.5731
lclavicle 7.80463e-015 -5.46658e-016
lhumerus -25.1378 13.8145 47.165
lradius 78.5019
lwrist 12.6732
lhand -23.1557 17.603
lfingers 7.12502
lthumb 3.2927 47.5573
rfemur -1.40932 -0.756162 17.941
rtibia 29.6306
rfoot -29.7379 -19.6854
rtoes 11.2773
lfemur 6.97161 5.467 -13.9862
ltibia 7.55891
lfoot -10.3704 15.0503
ltoes 3.83703
902
root 3.75 16.9614 -6.81626 383.502 -87.8801 -27.5522
lowerback 1.44398 -0.84064 0.484936
upperback 1.35141 -1.12662 0.0818844
thorax 0.566165 -0.564225 -0.177508
lowerneck -4.12512 -1.86044 1.45143
upperneck 0.935208 -2.63166 2.61213
head 0.988578 -1.28023 0.507015
rclavicle -6.01634e-015 2.98177e-015
rhumerus -29.1586 -12.8551 -46.8192
rradius 71.1945
rwrist -6.8575
rhand -27.6253 -11.4045
rfingers 7.12502
rthumb -1.024 -41.3818
lclavicle -6.01634e-015 2.98177e-015
lhumerus -26.0547 13.7569 48.1013
lradius 79.1185
lwrist 12.8634
lhand -23.1262 17.2015
lfingers 7.12502
lthumb 3.32127 47.1553
rfemur -1.40137 -0.730707 17.9515
rtibia 29.6139
rfoot -29.709 -19.668
rtoes 11.2634
lfemur 7.00759 5.52978 -13.9661
ltibia 7.53897
lfoot -10.3772 15.0462
ltoes 3.84454
